<svg xmlns="http://www.w3.org/2000/svg" xmlns:ns1="http://sodipodi.sourceforge.net/DTD/sodipodi-0.dtd" xmlns:ns2="http://www.inkscape.org/namespaces/inkscape" viewBox="-14.0 -14.0 284.0 284.0" width="256" height="256"><defs><clipPath id="boundary-clip"><path d="M 54.111328 -0.79101562 C 36.506589 -0.20634932 18.449748 11.120597 9.6699219 29.417969 C 2.2307476 44.921389 3.6819539 63.093187 8 79.384766 C 12.318046 95.676344 19.603358 110.24626 25.189453 119.08594 C 31.075982 128.40104 38.456705 133.08487 44.363281 135.21484 C 44.885755 135.40325 45.400604 135.57278 45.904297 135.72461 C 34.845099 149.03409 21.988901 169.88918 23.693359 193.56641 C 24.678565 207.25224 27.259573 216.97445 31.927734 224.53906 C 36.595896 232.10368 43.176899 237.11499 50.994141 241.71484 C 68.566862 252.05506 87.580245 255.48949 127.9375 256.03516 A 5 5 0 0 0 128.0625 256.03516 A 5 5 0 0 0 128.11523 256.03516 C 168.43614 255.4872 187.44083 252.05054 205.00586 241.71484 C 212.8231 237.11499 219.4041 232.10368 224.07227 224.53906 C 228.74043 216.97445 231.32143 207.25224 232.30664 193.56641 C 234.0111 169.88918 221.1549 149.03409 210.0957 135.72461 C 210.5994 135.57278 211.11425 135.40325 211.63672 135.21484 C 217.54329 133.08487 224.92402 128.40104 230.81055 119.08594 C 236.39664 110.24626 243.68195 95.676344 248 79.384766 C 252.31805 63.093187 253.76925 44.921389 246.33008 29.417969 C 237.55025 11.120597 219.49341 -0.20634932 201.88867 -0.79101562 C 196.02042 -0.98590439 190.20201 0.013929635 184.79492 2.3457031 C 172.00623 7.860753 164.304 20.24991 159.4707 30.867188 C 155.69169 39.168511 153.66637 46.724953 152.96289 49.626953 C 145.05691 48.026924 137.09251 47.502587 128.26172 47.164062 A 5 5 0 0 0 127.81445 47.162109 C 127.78903 47.163081 127.76369 47.163088 127.73828 47.164062 C 118.90749 47.502587 110.94309 48.026924 103.03711 49.626953 C 102.33363 46.724953 100.30831 39.168511 96.529297 30.867188 C 91.695997 20.24991 83.993772 7.860753 71.205078 2.3457031 C 65.797994 0.013929635 59.979575 -0.98590439 54.111328 -0.79101562 z" /></clipPath></defs><g id="boundary-halo"><g id="layer5">
    <path style="fill:none;stroke:#c87f43;stroke-width:30.0;stroke-linecap:round;stroke-linejoin:round;stroke-miterlimit:4;stroke-dasharray:none;stroke-opacity:1" d="m 54.754798,132.02818 c 0,0 -14.740393,1.15965 -25.339505,-15.61285 C 18.816177,99.642824 0.87635855,59.301215 14.177561,31.581186 24.783597,9.4779488 50.60598,-1.0929621 69.225531,6.9366108 90.957373,16.308341 98.432832,51.912867 98.432832,51.912867" id="path2344" ns1:nodetypes="csssc" />
    <path style="fill:none;stroke:#c87f43;stroke-width:30.0;stroke-linecap:round;stroke-linejoin:round;stroke-miterlimit:4;stroke-dasharray:none;stroke-opacity:1" d="m 64.094776,124.31363 c 0,0 -38.086084,31.77224 -35.413832,68.8934 1.90499,26.46287 9.815885,35.35189 24.849345,44.19795 16.658504,9.80227 34.371128,13.0882 74.475241,13.63044" id="path3544" ns1:nodetypes="cssc" />
    <path style="fill:none;stroke:#c87f43;stroke-width:30.0;stroke-linecap:round;stroke-linejoin:round;stroke-miterlimit:4;stroke-dasharray:none;stroke-opacity:1" d="M 87.691291,59.697921 C 101.13288,53.794415 112.89212,52.736236 128.00553,52.159014" id="path4458" ns1:nodetypes="cc" />
  </g>
  <g transform="matrix(-1,0,0,1,256,0)"><g ns2:groupmode="layer" id="layer5" ns2:label="boundary">
    <path style="fill:none;stroke:#c87f43;stroke-width:30.0;stroke-linecap:round;stroke-linejoin:round;stroke-miterlimit:4;stroke-dasharray:none;stroke-opacity:1" d="m 54.754798,132.02818 c 0,0 -14.740393,1.15965 -25.339505,-15.61285 C 18.816177,99.642824 0.87635855,59.301215 14.177561,31.581186 24.783597,9.4779488 50.60598,-1.0929621 69.225531,6.9366108 90.957373,16.308341 98.432832,51.912867 98.432832,51.912867" id="path2344" ns1:nodetypes="csssc" />
    <path style="fill:none;stroke:#c87f43;stroke-width:30.0;stroke-linecap:round;stroke-linejoin:round;stroke-miterlimit:4;stroke-dasharray:none;stroke-opacity:1" d="m 64.094776,124.31363 c 0,0 -38.086084,31.77224 -35.413832,68.8934 1.90499,26.46287 9.815885,35.35189 24.849345,44.19795 16.658504,9.80227 34.371128,13.0882 74.475241,13.63044" id="path3544" ns1:nodetypes="cssc" />
    <path style="fill:none;stroke:#c87f43;stroke-width:30.0;stroke-linecap:round;stroke-linejoin:round;stroke-miterlimit:4;stroke-dasharray:none;stroke-opacity:1" d="M 87.691291,59.697921 C 101.13288,53.794415 112.89212,52.736236 128.00553,52.159014" id="path4458" ns1:nodetypes="cc" />
  </g>
  </g></g><path id="boundary-fill" d="M 54.111328 -0.79101562 C 36.506589 -0.20634932 18.449748 11.120597 9.6699219 29.417969 C 2.2307476 44.921389 3.6819539 63.093187 8 79.384766 C 12.318046 95.676344 19.603358 110.24626 25.189453 119.08594 C 31.075982 128.40104 38.456705 133.08487 44.363281 135.21484 C 44.885755 135.40325 45.400604 135.57278 45.904297 135.72461 C 34.845099 149.03409 21.988901 169.88918 23.693359 193.56641 C 24.678565 207.25224 27.259573 216.97445 31.927734 224.53906 C 36.595896 232.10368 43.176899 237.11499 50.994141 241.71484 C 68.566862 252.05506 87.580245 255.48949 127.9375 256.03516 A 5 5 0 0 0 128.0625 256.03516 A 5 5 0 0 0 128.11523 256.03516 C 168.43614 255.4872 187.44083 252.05054 205.00586 241.71484 C 212.8231 237.11499 219.4041 232.10368 224.07227 224.53906 C 228.74043 216.97445 231.32143 207.25224 232.30664 193.56641 C 234.0111 169.88918 221.1549 149.03409 210.0957 135.72461 C 210.5994 135.57278 211.11425 135.40325 211.63672 135.21484 C 217.54329 133.08487 224.92402 128.40104 230.81055 119.08594 C 236.39664 110.24626 243.68195 95.676344 248 79.384766 C 252.31805 63.093187 253.76925 44.921389 246.33008 29.417969 C 237.55025 11.120597 219.49341 -0.20634932 201.88867 -0.79101562 C 196.02042 -0.98590439 190.20201 0.013929635 184.79492 2.3457031 C 172.00623 7.860753 164.304 20.24991 159.4707 30.867188 C 155.69169 39.168511 153.66637 46.724953 152.96289 49.626953 C 145.05691 48.026924 137.09251 47.502587 128.26172 47.164062 A 5 5 0 0 0 127.81445 47.162109 C 127.78903 47.163081 127.76369 47.163088 127.73828 47.164062 C 118.90749 47.502587 110.94309 48.026924 103.03711 49.626953 C 102.33363 46.724953 100.30831 39.168511 96.529297 30.867188 C 91.695997 20.24991 83.993772 7.860753 71.205078 2.3457031 C 65.797994 0.013929635 59.979575 -0.98590439 54.111328 -0.79101562 z" fill="#c87f43" fill-rule="nonzero" stroke="none" /><g id="whiskers-halo"><g id="layer8">
    <path style="fill:none;stroke:#c87f43;stroke-width:30.0;stroke-linecap:round;stroke-linejoin:round;stroke-miterlimit:4;stroke-dasharray:none;stroke-opacity:1" d="M 92.874647,171.69781 C 71.426371,159.7003 25.445883,163.15654 5.7464449,178.59959" id="path9091" ns1:nodetypes="cc" />
    <path style="fill:none;stroke:#c87f43;stroke-width:30.0;stroke-linecap:round;stroke-linejoin:round;stroke-miterlimit:4;stroke-dasharray:none;stroke-opacity:1" d="m 96.179702,187.71427 c -23.540917,-5.04716 -67.304821,-0.029 -86.3727267,13.93029" id="path9093" ns1:nodetypes="cc" />
  </g>
  <g transform="matrix(-1,0,0,1,256,0)"><g ns2:groupmode="layer" id="layer8" ns2:label="whiskers">
    <path style="fill:none;stroke:#c87f43;stroke-width:30.0;stroke-linecap:round;stroke-linejoin:round;stroke-miterlimit:4;stroke-dasharray:none;stroke-opacity:1" d="M 92.874647,171.69781 C 71.426371,159.7003 25.445883,163.15654 5.7464449,178.59959" id="path9091" ns1:nodetypes="cc" />
    <path style="fill:none;stroke:#c87f43;stroke-width:30.0;stroke-linecap:round;stroke-linejoin:round;stroke-miterlimit:4;stroke-dasharray:none;stroke-opacity:1" d="m 96.179702,187.71427 c -23.540917,-5.04716 -67.304821,-0.029 -86.3727267,13.93029" id="path9093" ns1:nodetypes="cc" />
  </g>
  </g></g><g id="spots-fill" clip-path="url(#boundary-clip)"><ellipse style="fill:#e6e2cf;stroke-width:1.97656;stroke-linecap:round;stroke-linejoin:round;stop-color:#000000;stroke:none" id="path13598" cx="225.73286" cy="95.907722" rx="102.98962" ry="111.20271" />
    <ellipse style="fill:#e6e2cf;stroke-width:1.67315;stroke-linecap:round;stroke-linejoin:round;stop-color:#000000;stroke:none" id="path13598-3" cx="32.759953" cy="267.53622" rx="144.85356" ry="56.653954" />
  </g><path id="nose-fill" d="M 127.92578 145.68359 C 120.64724 145.77729 114.73138 146.22245 109.72852 148.69531 C 104.72325 151.16936 101.39672 156.58751 101.18945 162.75 C 100.93716 170.25091 106.18994 175.7654 111.51367 179.95703 C 114.17554 182.05285 117.01876 183.79571 119.79102 185.07031 C 122.47928 186.3063 124.98194 187.20419 127.86523 187.18359 C 127.91025 187.18481 127.95517 187.18673 128 187.1875 C 128.04483 187.18673 128.08975 187.18481 128.13477 187.18359 C 131.01806 187.20419 133.52072 186.3063 136.20898 185.07031 C 138.98124 183.79571 141.82446 182.05285 144.48633 179.95703 C 149.81006 175.7654 155.06284 170.25091 154.81055 162.75 C 154.60328 156.58751 151.27675 151.16936 146.27148 148.69531 C 141.26862 146.22245 135.35276 145.77729 128.07422 145.68359 A 5 5 0 0 0 128.06445 145.68359 A 5 5 0 0 0 127.93555 145.68359 C 127.93205 145.68364 127.92927 145.68355 127.92578 145.68359 z" fill="#f09b9b" stroke="none" /><path id="mouth-fill" d="M 127.99414 181.08984 A 5 5 0 0 0 122.99414 186.08984 C 122.99414 187.05349 122.84296 188.39401 122.9668 190.08594 C 122.84816 190.7492 122.80997 191.05461 121.66992 192.06055 C 119.35156 194.10617 111.7009 197.73269 94.199219 201.5332 A 5 5 0 0 0 90.373047 207.48047 A 5 5 0 0 0 96.320312 211.30469 C 97.591995 211.02854 98.816942 210.75663 99.998047 210.48633 C 101.79116 215.72393 105.28162 220.67252 109.73633 224.70703 C 114.68578 229.18962 120.97673 232.61864 127.99609 232.62305 A 5 5 0 0 0 128.00391 232.62305 C 135.02327 232.61864 141.31422 229.18962 146.26367 224.70703 C 150.71838 220.67252 154.20884 215.72393 156.00195 210.48633 C 157.18306 210.75663 158.40801 211.02854 159.67969 211.30469 A 5 5 0 0 0 165.62695 207.48047 A 5 5 0 0 0 161.80078 201.5332 C 144.2991 197.73269 136.64844 194.10617 134.33008 192.06055 C 133.19003 191.05461 133.15184 190.7492 133.0332 190.08594 C 133.15704 188.39401 133.00586 187.05349 133.00586 186.08984 A 5 5 0 0 0 128.64648 181.13281 A 5 5 0 0 0 127.99414 181.08984 z" fill="#f09b9b" stroke="none" /><g id="eyes-fill"><ellipse style="fill:#000000;stroke:none;stroke-width:10;stroke-linecap:round;stroke-linejoin:round;stroke-miterlimit:4;stroke-dasharray:none;stop-color:#000000" id="ellipse14205" cx="131.91898" cy="89.018501" rx="8.5885868" ry="17.80649" transform="matrix(0.9694414,0.245323,-0.3384571,0.94098182,0,0)" />
  <g transform="matrix(-1,0,0,1,256,0)"><ellipse style="fill:#000000;stroke:none;stroke-width:10;stroke-linecap:round;stroke-linejoin:round;stroke-miterlimit:4;stroke-dasharray:none;stop-color:#000000" id="ellipse14205" cx="131.91898" cy="89.018501" rx="8.5885868" ry="17.80649" transform="matrix(0.9694414,0.245323,-0.3384571,0.94098182,0,0)" />
  </g></g><g id="strokes"><g id="boundary-strokes"><g id="layer5">
    <path style="fill:none;stroke:#000000;stroke-width:10.0;stroke-linecap:round;stroke-linejoin:round;stroke-miterlimit:4;stroke-dasharray:none;stroke-opacity:1" d="m 54.754798,132.02818 c 0,0 -14.740393,1.15965 -25.339505,-15.61285 C 18.816177,99.642824 0.87635855,59.301215 14.177561,31.581186 24.783597,9.4779488 50.60598,-1.0929621 69.225531,6.9366108 90.957373,16.308341 98.432832,51.912867 98.432832,51.912867" id="path2344" ns1:nodetypes="csssc" />
    <path style="fill:none;stroke:#000000;stroke-width:10.0;stroke-linecap:round;stroke-linejoin:miter;stroke-miterlimit:4;stroke-dasharray:none;stroke-opacity:1" d="m 64.094776,124.31363 c 0,0 -38.086084,31.77224 -35.413832,68.8934 1.90499,26.46287 9.815885,35.35189 24.849345,44.19795 16.658504,9.80227 34.371128,13.0882 74.475241,13.63044" id="path3544" ns1:nodetypes="cssc" />
    <path style="fill:none;stroke:#000000;stroke-width:10.0;stroke-linecap:round;stroke-linejoin:miter;stroke-miterlimit:4;stroke-dasharray:none;stroke-opacity:1" d="M 87.691291,59.697921 C 101.13288,53.794415 112.89212,52.736236 128.00553,52.159014" id="path4458" ns1:nodetypes="cc" />
  </g>
  <g transform="matrix(-1,0,0,1,256,0)"><g ns2:groupmode="layer" id="layer5" ns2:label="boundary">
    <path style="fill:none;stroke:#000000;stroke-width:10.0;stroke-linecap:round;stroke-linejoin:round;stroke-miterlimit:4;stroke-dasharray:none;stroke-opacity:1" d="m 54.754798,132.02818 c 0,0 -14.740393,1.15965 -25.339505,-15.61285 C 18.816177,99.642824 0.87635855,59.301215 14.177561,31.581186 24.783597,9.4779488 50.60598,-1.0929621 69.225531,6.9366108 90.957373,16.308341 98.432832,51.912867 98.432832,51.912867" id="path2344" ns1:nodetypes="csssc" />
    <path style="fill:none;stroke:#000000;stroke-width:10.0;stroke-linecap:round;stroke-linejoin:miter;stroke-miterlimit:4;stroke-dasharray:none;stroke-opacity:1" d="m 64.094776,124.31363 c 0,0 -38.086084,31.77224 -35.413832,68.8934 1.90499,26.46287 9.815885,35.35189 24.849345,44.19795 16.658504,9.80227 34.371128,13.0882 74.475241,13.63044" id="path3544" ns1:nodetypes="cssc" />
    <path style="fill:none;stroke:#000000;stroke-width:10.0;stroke-linecap:round;stroke-linejoin:miter;stroke-miterlimit:4;stroke-dasharray:none;stroke-opacity:1" d="M 87.691291,59.697921 C 101.13288,53.794415 112.89212,52.736236 128.00553,52.159014" id="path4458" ns1:nodetypes="cc" />
  </g>
  </g></g><g id="whiskers-strokes"><g id="layer8">
    <path style="fill:none;stroke:#000000;stroke-width:10.0;stroke-linecap:round;stroke-linejoin:miter;stroke-miterlimit:4;stroke-dasharray:none;stroke-opacity:1" d="M 92.874647,171.69781 C 71.426371,159.7003 25.445883,163.15654 5.7464449,178.59959" id="path9091" ns1:nodetypes="cc" />
    <path style="fill:none;stroke:#000000;stroke-width:10.0;stroke-linecap:round;stroke-linejoin:miter;stroke-miterlimit:4;stroke-dasharray:none;stroke-opacity:1" d="m 96.179702,187.71427 c -23.540917,-5.04716 -67.304821,-0.029 -86.3727267,13.93029" id="path9093" ns1:nodetypes="cc" />
  </g>
  <g transform="matrix(-1,0,0,1,256,0)"><g ns2:groupmode="layer" id="layer8" ns2:label="whiskers">
    <path style="fill:none;stroke:#000000;stroke-width:10.0;stroke-linecap:round;stroke-linejoin:miter;stroke-miterlimit:4;stroke-dasharray:none;stroke-opacity:1" d="M 92.874647,171.69781 C 71.426371,159.7003 25.445883,163.15654 5.7464449,178.59959" id="path9091" ns1:nodetypes="cc" />
    <path style="fill:none;stroke:#000000;stroke-width:10.0;stroke-linecap:round;stroke-linejoin:miter;stroke-miterlimit:4;stroke-dasharray:none;stroke-opacity:1" d="m 96.179702,187.71427 c -23.540917,-5.04716 -67.304821,-0.029 -86.3727267,13.93029" id="path9093" ns1:nodetypes="cc" />
  </g>
  </g></g><g id="nose-strokes"><g id="layer4">
    <path style="fill:none;stroke:#000000;stroke-width:10.0;stroke-linecap:round;stroke-linejoin:miter;stroke-miterlimit:4;stroke-dasharray:none;stroke-opacity:1" d="m 128,150.68283 c -14.06503,0.18038 -21.48165,2.39272 -21.8127,12.23539 -0.30602,9.09826 15.48714,19.43936 21.8127,19.26785" id="path9740" ns1:nodetypes="csc" />
  </g>
  <g transform="matrix(-1,0,0,1,256,0)"><g ns2:groupmode="layer" id="layer4" ns2:label="nose">
    <path style="fill:none;stroke:#000000;stroke-width:10.0;stroke-linecap:round;stroke-linejoin:miter;stroke-miterlimit:4;stroke-dasharray:none;stroke-opacity:1" d="m 128,150.68283 c -14.06503,0.18038 -21.48165,2.39272 -21.8127,12.23539 -0.30602,9.09826 15.48714,19.43936 21.8127,19.26785" id="path9740" ns1:nodetypes="csc" />
  </g>
  </g></g><g id="mouth-strokes"><g id="layer10" style="display:inline">
    <path style="fill:none;stroke:#000000;stroke-width:10.0;stroke-linecap:round;stroke-linejoin:miter;stroke-miterlimit:4;stroke-dasharray:none;stroke-opacity:1" d="M 95.259321,206.41848 C 130.84625,198.69073 128.00553,192.6316 128.00553,186.09025" id="path4876" ns1:nodetypes="cc" />
    <path style="fill:none;stroke:#000000;stroke-width:10.0;stroke-linecap:round;stroke-linejoin:miter;stroke-miterlimit:4;stroke-dasharray:none;stroke-opacity:1" d="m 104.29695,207.44662 c 2.4581,9.24759 13.09427,20.17055 23.70305,20.17721" id="path4878" ns1:nodetypes="cc" />
  </g>
  <g transform="matrix(-1,0,0,1,256,0)"><g ns2:groupmode="layer" id="layer10" ns2:label="mouth" style="display:inline">
    <path style="fill:none;stroke:#000000;stroke-width:10.0;stroke-linecap:round;stroke-linejoin:miter;stroke-miterlimit:4;stroke-dasharray:none;stroke-opacity:1" d="M 95.259321,206.41848 C 130.84625,198.69073 128.00553,192.6316 128.00553,186.09025" id="path4876" ns1:nodetypes="cc" />
    <path style="fill:none;stroke:#000000;stroke-width:10.0;stroke-linecap:round;stroke-linejoin:miter;stroke-miterlimit:4;stroke-dasharray:none;stroke-opacity:1" d="m 104.29695,207.44662 c 2.4581,9.24759 13.09427,20.17055 23.70305,20.17721" id="path4878" ns1:nodetypes="cc" />
  </g>
  </g></g><g id="eyes-strokes"><g id="layer9">
    <ellipse style="fill:none;stroke:#000000;stroke-width:10.0;stroke-linecap:round;stroke-linejoin:round;stroke-miterlimit:4;stroke-dasharray:none;stop-color:#000000" id="ellipse14205" cx="131.91898" cy="89.018501" rx="8.5885868" ry="17.80649" transform="matrix(0.9694414,0.245323,-0.3384571,0.94098182,0,0)" />
  </g>
  <g transform="matrix(-1,0,0,1,256,0)"><g ns2:groupmode="layer" id="layer9" ns2:label="eyes">
    <ellipse style="fill:none;stroke:#000000;stroke-width:10.0;stroke-linecap:round;stroke-linejoin:round;stroke-miterlimit:4;stroke-dasharray:none;stop-color:#000000" id="ellipse14205" cx="131.91898" cy="89.018501" rx="8.5885868" ry="17.80649" transform="matrix(0.9694414,0.245323,-0.3384571,0.94098182,0,0)" />
  </g>
  </g></g></g><g id="eye-highlights"><ellipse style="fill:#ffffff;stroke-width:1.11834;stroke-linecap:round;stroke-linejoin:round;stop-color:#000000" id="ellipse1" cx="-8.5884247" cy="143.36406" rx="2.7507515" ry="4.067214" transform="rotate(-48.517308)" />
    <ellipse style="fill:#ffffff;stroke-width:1.13293;stroke-linecap:round;stroke-linejoin:round;stop-color:#000000" id="ellipse2" cx="54.758118" cy="142.80299" rx="1.5731258" ry="2.8913913" transform="matrix(0.91838091,-0.3956975,0.40317277,0.91512388,0,0)" />
    <ellipse style="fill:#ffffff;stroke-width:1.11834;stroke-linecap:round;stroke-linejoin:round;stop-color:#000000" id="ellipse3" cx="28.332096" cy="188.13972" rx="2.7507515" ry="4.067214" transform="rotate(-48.517308)" />
    <ellipse style="fill:#ffffff;stroke-width:1.13293;stroke-linecap:round;stroke-linejoin:round;stop-color:#000000" id="ellipse4" cx="107.03065" cy="167.59122" rx="1.5731258" ry="2.8913913" transform="matrix(0.91838091,-0.3956975,0.40317277,0.91512388,0,0)" />
  </g></svg>
