<svg xmlns="http://www.w3.org/2000/svg" xmlns:ns1="http://sodipodi.sourceforge.net/DTD/sodipodi-0.dtd" xmlns:ns2="http://www.inkscape.org/namespaces/inkscape" viewBox="-14.711772247760472 -15.06352533649784 285.4235444955209 285.4235444955209" width="256" height="256"><defs><clipPath id="boundary-clip"><path d="M 128.00553,52.159014 C 112.89212,52.736236 101.13288,53.794415 87.691291,59.697921 L 98.432832,51.912867 C 98.432832,51.912867 90.957373,16.308341 69.225531,6.9366108 C 50.60598,-1.0929621 24.783597,9.4779488 14.177561,31.581186 C 0.87635855,59.301215 18.816177,99.642824 29.415293000000002,116.41533 C 40.014405000000004,133.18783 54.754798,132.02818 54.754798,132.02818 L 64.094776,124.31363 C 64.094776,124.31363 26.008691999999996,156.08587 28.680943999999997,193.20703 C 30.585933999999998,219.6699 38.496829,228.55892 53.530288999999996,237.40498 C 70.188793,247.20725 87.901417,250.49318 128.00553,251.03542 L 127.99447,251.03542 C 168.09858300000002,250.49318 185.811207,247.20725 202.46971100000002,237.40498 C 217.503171,228.55892 225.414066,219.6699 227.319056,193.20703 C 229.991308,156.08587 191.905224,124.31363 191.905224,124.31363 L 201.245202,132.02818 C 201.245202,132.02818 215.985595,133.18783 226.584707,116.41533 C 237.183823,99.642824 255.12364145,59.301215 241.822439,31.581186 C 231.216403,9.4779488 205.39402,-1.0929621 186.774469,6.9366108 C 165.04262699999998,16.308341 157.56716799999998,51.912867 157.56716799999998,51.912867 L 168.308709,59.697921 C 154.86712,53.794415 143.10788,52.736236 127.99447,52.159014 Z" /></clipPath></defs><g id="boundary-halo"><g>
    <path style="fill:none;stroke:#c87f43;stroke-width:30.0;stroke-linecap:round;stroke-linejoin:round;stroke-miterlimit:4;stroke-dasharray:none;stroke-opacity:1" d="m 54.754798,132.02818 c 0,0 -14.740393,1.15965 -25.339505,-15.61285 C 18.816177,99.642824 0.87635855,59.301215 14.177561,31.581186 24.783597,9.4779488 50.60598,-1.0929621 69.225531,6.9366108 90.957373,16.308341 98.432832,51.912867 98.432832,51.912867" ns1:nodetypes="csssc" />
    <path style="fill:none;stroke:#c87f43;stroke-width:30.0;stroke-linecap:round;stroke-linejoin:round;stroke-miterlimit:4;stroke-dasharray:none;stroke-opacity:1" d="m 64.094776,124.31363 c 0,0 -38.086084,31.77224 -35.413832,68.8934 1.90499,26.46287 9.815885,35.35189 24.849345,44.19795 16.658504,9.80227 34.371128,13.0882 74.475241,13.63044" ns1:nodetypes="cssc" />
    <path style="fill:none;stroke:#c87f43;stroke-width:30.0;stroke-linecap:round;stroke-linejoin:round;stroke-miterlimit:4;stroke-dasharray:none;stroke-opacity:1" d="M 87.691291,59.697921 C 101.13288,53.794415 112.89212,52.736236 128.00553,52.159014" ns1:nodetypes="cc" />
  </g>
  <g transform="matrix(-1,0,0,1,256,0)"><g ns2:groupmode="layer" ns2:label="boundary">
    <path style="fill:none;stroke:#c87f43;stroke-width:30.0;stroke-linecap:round;stroke-linejoin:round;stroke-miterlimit:4;stroke-dasharray:none;stroke-opacity:1" d="m 54.754798,132.02818 c 0,0 -14.740393,1.15965 -25.339505,-15.61285 C 18.816177,99.642824 0.87635855,59.301215 14.177561,31.581186 24.783597,9.4779488 50.60598,-1.0929621 69.225531,6.9366108 90.957373,16.308341 98.432832,51.912867 98.432832,51.912867" ns1:nodetypes="csssc" />
    <path style="fill:none;stroke:#c87f43;stroke-width:30.0;stroke-linecap:round;stroke-linejoin:round;stroke-miterlimit:4;stroke-dasharray:none;stroke-opacity:1" d="m 64.094776,124.31363 c 0,0 -38.086084,31.77224 -35.413832,68.8934 1.90499,26.46287 9.815885,35.35189 24.849345,44.19795 16.658504,9.80227 34.371128,13.0882 74.475241,13.63044" ns1:nodetypes="cssc" />
    <path style="fill:none;stroke:#c87f43;stroke-width:30.0;stroke-linecap:round;stroke-linejoin:round;stroke-miterlimit:4;stroke-dasharray:none;stroke-opacity:1" d="M 87.691291,59.697921 C 101.13288,53.794415 112.89212,52.736236 128.00553,52.159014" ns1:nodetypes="cc" />
  </g>
  </g></g><path id="boundary-fill" d="M 128.00553,52.159014 C 112.89212,52.736236 101.13288,53.794415 87.691291,59.697921 L 98.432832,51.912867 C 98.432832,51.912867 90.957373,16.308341 69.225531,6.9366108 C 50.60598,-1.0929621 24.783597,9.4779488 14.177561,31.581186 C 0.87635855,59.301215 18.816177,99.642824 29.415293000000002,116.41533 C 40.014405000000004,133.18783 54.754798,132.02818 54.754798,132.02818 L 64.094776,124.31363 C 64.094776,124.31363 26.008691999999996,156.08587 28.680943999999997,193.20703 C 30.585933999999998,219.6699 38.496829,228.55892 53.530288999999996,237.40498 C 70.188793,247.20725 87.901417,250.49318 128.00553,251.03542 L 127.99447,251.03542 C 168.09858300000002,250.49318 185.811207,247.20725 202.46971100000002,237.40498 C 217.503171,228.55892 225.414066,219.6699 227.319056,193.20703 C 229.991308,156.08587 191.905224,124.31363 191.905224,124.31363 L 201.245202,132.02818 C 201.245202,132.02818 215.985595,133.18783 226.584707,116.41533 C 237.183823,99.642824 255.12364145,59.301215 241.822439,31.581186 C 231.216403,9.4779488 205.39402,-1.0929621 186.774469,6.9366108 C 165.04262699999998,16.308341 157.56716799999998,51.912867 157.56716799999998,51.912867 L 168.308709,59.697921 C 154.86712,53.794415 143.10788,52.736236 127.99447,52.159014 Z" fill="#c87f43" fill-rule="nonzero" stroke="none" /><g id="whiskers-halo"><g>
    <path style="fill:none;stroke:#c87f43;stroke-width:30.0;stroke-linecap:round;stroke-linejoin:round;stroke-miterlimit:4;stroke-dasharray:none;stroke-opacity:1" d="M 92.874647,171.69781 C 71.426371,159.7003 25.445883,163.15654 5.7464449,178.59959" ns1:nodetypes="cc" />
    <path style="fill:none;stroke:#c87f43;stroke-width:30.0;stroke-linecap:round;stroke-linejoin:round;stroke-miterlimit:4;stroke-dasharray:none;stroke-opacity:1" d="m 96.179702,187.71427 c -23.540917,-5.04716 -67.304821,-0.029 -86.3727267,13.93029" ns1:nodetypes="cc" />
  </g>
  <g transform="matrix(-1,0,0,1,256,0)"><g ns2:groupmode="layer" ns2:label="whiskers">
    <path style="fill:none;stroke:#c87f43;stroke-width:30.0;stroke-linecap:round;stroke-linejoin:round;stroke-miterlimit:4;stroke-dasharray:none;stroke-opacity:1" d="M 92.874647,171.69781 C 71.426371,159.7003 25.445883,163.15654 5.7464449,178.59959" ns1:nodetypes="cc" />
    <path style="fill:none;stroke:#c87f43;stroke-width:30.0;stroke-linecap:round;stroke-linejoin:round;stroke-miterlimit:4;stroke-dasharray:none;stroke-opacity:1" d="m 96.179702,187.71427 c -23.540917,-5.04716 -67.304821,-0.029 -86.3727267,13.93029" ns1:nodetypes="cc" />
  </g>
  </g></g><g id="spots-fill" clip-path="url(#boundary-clip)"><ellipse style="fill:#e6e2cf;stroke-width:1.97656;stroke-linecap:round;stroke-linejoin:round;stop-color:#000000;stroke:none" cx="225.73286" cy="95.907722" rx="102.98962" ry="111.20271" />
    <ellipse style="fill:#e6e2cf;stroke-width:1.67315;stroke-linecap:round;stroke-linejoin:round;stop-color:#000000;stroke:none" cx="32.759953" cy="267.53622" rx="144.85356" ry="56.653954" />
  </g><path id="nose-fill" d="M 128.0,150.68283 C 113.93496999999999,150.86321 106.51835,153.07555 106.1873,162.91822 C 105.88127999999999,172.01648 121.67443999999999,182.35757999999998 128.0,182.18607 C 134.32556,182.35757999999998 150.11872,172.01648 149.8127,162.91822 C 149.48165,153.07555 142.06503,150.86321 128.0,150.68283 Z" fill="#f09b9b" stroke="none" /><path id="mouth-fill" d="M 128.00553,186.09025 C 128.00553,192.6316 130.84625,198.69073 95.259321,206.41848 L 104.29695,207.44662 C 106.75505,216.69421 117.39121999999999,227.61717 128.0,227.62383 L 128.0,227.62383 C 138.60878000000002,227.61717 149.24495000000002,216.69421 151.70305000000002,207.44662 L 160.740679,206.41848 C 125.15375,198.69073 127.99447,192.6316 127.99447,186.09025 Z" fill="#f09b9b" stroke="none" /><g id="eyes-fill"><ellipse style="fill:#000000;stroke:none;stroke-width:10;stroke-linecap:round;stroke-linejoin:round;stroke-miterlimit:4;stroke-dasharray:none;stop-color:#000000" cx="131.91898" cy="89.018501" rx="8.5885868" ry="17.80649" transform="matrix(0.9694414,0.245323,-0.3384571,0.94098182,0,0)" />
  <g transform="matrix(-1,0,0,1,256,0)"><ellipse style="fill:#000000;stroke:none;stroke-width:10;stroke-linecap:round;stroke-linejoin:round;stroke-miterlimit:4;stroke-dasharray:none;stop-color:#000000" cx="131.91898" cy="89.018501" rx="8.5885868" ry="17.80649" transform="matrix(0.9694414,0.245323,-0.3384571,0.94098182,0,0)" />
  </g></g><g id="strokes"><g id="boundary-strokes"><g>
    <path style="fill:none;stroke:#000000;stroke-width:10.0;stroke-linecap:round;stroke-linejoin:round;stroke-miterlimit:4;stroke-dasharray:none;stroke-opacity:1" d="m 54.754798,132.02818 c 0,0 -14.740393,1.15965 -25.339505,-15.61285 C 18.816177,99.642824 0.87635855,59.301215 14.177561,31.581186 24.783597,9.4779488 50.60598,-1.0929621 69.225531,6.9366108 90.957373,16.308341 98.432832,51.912867 98.432832,51.912867" ns1:nodetypes="csssc" />
    <path style="fill:none;stroke:#000000;stroke-width:10.0;stroke-linecap:round;stroke-linejoin:miter;stroke-miterlimit:4;stroke-dasharray:none;stroke-opacity:1" d="m 64.094776,124.31363 c 0,0 -38.086084,31.77224 -35.413832,68.8934 1.90499,26.46287 9.815885,35.35189 24.849345,44.19795 16.658504,9.80227 34.371128,13.0882 74.475241,13.63044" ns1:nodetypes="cssc" />
    <path style="fill:none;stroke:#000000;stroke-width:10.0;stroke-linecap:round;stroke-linejoin:miter;stroke-miterlimit:4;stroke-dasharray:none;stroke-opacity:1" d="M 87.691291,59.697921 C 101.13288,53.794415 112.89212,52.736236 128.00553,52.159014" ns1:nodetypes="cc" />
  </g>
  <g transform="matrix(-1,0,0,1,256,0)"><g ns2:groupmode="layer" ns2:label="boundary">
    <path style="fill:none;stroke:#000000;stroke-width:10.0;stroke-linecap:round;stroke-linejoin:round;stroke-miterlimit:4;stroke-dasharray:none;stroke-opacity:1" d="m 54.754798,132.02818 c 0,0 -14.740393,1.15965 -25.339505,-15.61285 C 18.816177,99.642824 0.87635855,59.301215 14.177561,31.581186 24.783597,9.4779488 50.60598,-1.0929621 69.225531,6.9366108 90.957373,16.308341 98.432832,51.912867 98.432832,51.912867" ns1:nodetypes="csssc" />
    <path style="fill:none;stroke:#000000;stroke-width:10.0;stroke-linecap:round;stroke-linejoin:miter;stroke-miterlimit:4;stroke-dasharray:none;stroke-opacity:1" d="m 64.094776,124.31363 c 0,0 -38.086084,31.77224 -35.413832,68.8934 1.90499,26.46287 9.815885,35.35189 24.849345,44.19795 16.658504,9.80227 34.371128,13.0882 74.475241,13.63044" ns1:nodetypes="cssc" />
    <path style="fill:none;stroke:#000000;stroke-width:10.0;stroke-linecap:round;stroke-linejoin:miter;stroke-miterlimit:4;stroke-dasharray:none;stroke-opacity:1" d="M 87.691291,59.697921 C 101.13288,53.794415 112.89212,52.736236 128.00553,52.159014" ns1:nodetypes="cc" />
  </g>
  </g></g><g id="whiskers-strokes"><g>
    <path style="fill:none;stroke:#000000;stroke-width:10.0;stroke-linecap:round;stroke-linejoin:miter;stroke-miterlimit:4;stroke-dasharray:none;stroke-opacity:1" d="M 92.874647,171.69781 C 71.426371,159.7003 25.445883,163.15654 5.7464449,178.59959" ns1:nodetypes="cc" />
    <path style="fill:none;stroke:#000000;stroke-width:10.0;stroke-linecap:round;stroke-linejoin:miter;stroke-miterlimit:4;stroke-dasharray:none;stroke-opacity:1" d="m 96.179702,187.71427 c -23.540917,-5.04716 -67.304821,-0.029 -86.3727267,13.93029" ns1:nodetypes="cc" />
  </g>
  <g transform="matrix(-1,0,0,1,256,0)"><g ns2:groupmode="layer" ns2:label="whiskers">
    <path style="fill:none;stroke:#000000;stroke-width:10.0;stroke-linecap:round;stroke-linejoin:miter;stroke-miterlimit:4;stroke-dasharray:none;stroke-opacity:1" d="M 92.874647,171.69781 C 71.426371,159.7003 25.445883,163.15654 5.7464449,178.59959" ns1:nodetypes="cc" />
    <path style="fill:none;stroke:#000000;stroke-width:10.0;stroke-linecap:round;stroke-linejoin:miter;stroke-miterlimit:4;stroke-dasharray:none;stroke-opacity:1" d="m 96.179702,187.71427 c -23.540917,-5.04716 -67.304821,-0.029 -86.3727267,13.93029" ns1:nodetypes="cc" />
  </g>
  </g></g><g id="nose-strokes"><g>
    <path style="fill:none;stroke:#000000;stroke-width:10.0;stroke-linecap:round;stroke-linejoin:miter;stroke-miterlimit:4;stroke-dasharray:none;stroke-opacity:1" d="m 128,150.68283 c -14.06503,0.18038 -21.48165,2.39272 -21.8127,12.23539 -0.30602,9.09826 15.48714,19.43936 21.8127,19.26785" ns1:nodetypes="csc" />
  </g>
  <g transform="matrix(-1,0,0,1,256,0)"><g ns2:groupmode="layer" ns2:label="nose">
    <path style="fill:none;stroke:#000000;stroke-width:10.0;stroke-linecap:round;stroke-linejoin:miter;stroke-miterlimit:4;stroke-dasharray:none;stroke-opacity:1" d="m 128,150.68283 c -14.06503,0.18038 -21.48165,2.39272 -21.8127,12.23539 -0.30602,9.09826 15.48714,19.43936 21.8127,19.26785" ns1:nodetypes="csc" />
  </g>
  </g></g><g id="mouth-strokes"><g style="display:inline">
    <path style="fill:none;stroke:#000000;stroke-width:10.0;stroke-linecap:round;stroke-linejoin:miter;stroke-miterlimit:4;stroke-dasharray:none;stroke-opacity:1" d="M 95.259321,206.41848 C 130.84625,198.69073 128.00553,192.6316 128.00553,186.09025" ns1:nodetypes="cc" />
    <path style="fill:none;stroke:#000000;stroke-width:10.0;stroke-linecap:round;stroke-linejoin:miter;stroke-miterlimit:4;stroke-dasharray:none;stroke-opacity:1" d="m 104.29695,207.44662 c 2.4581,9.24759 13.09427,20.17055 23.70305,20.17721" ns1:nodetypes="cc" />
  </g>
  <g transform="matrix(-1,0,0,1,256,0)"><g ns2:groupmode="layer" ns2:label="mouth" style="display:inline">
    <path style="fill:none;stroke:#000000;stroke-width:10.0;stroke-linecap:round;stroke-linejoin:miter;stroke-miterlimit:4;stroke-dasharray:none;stroke-opacity:1" d="M 95.259321,206.41848 C 130.84625,198.69073 128.00553,192.6316 128.00553,186.09025" ns1:nodetypes="cc" />
    <path style="fill:none;stroke:#000000;stroke-width:10.0;stroke-linecap:round;stroke-linejoin:miter;stroke-miterlimit:4;stroke-dasharray:none;stroke-opacity:1" d="m 104.29695,207.44662 c 2.4581,9.24759 13.09427,20.17055 23.70305,20.17721" ns1:nodetypes="cc" />
  </g>
  </g></g><g id="eyes-strokes"><g>
    <ellipse style="fill:none;stroke:#000000;stroke-width:10.0;stroke-linecap:round;stroke-linejoin:round;stroke-miterlimit:4;stroke-dasharray:none;stop-color:#000000" cx="131.91898" cy="89.018501" rx="8.5885868" ry="17.80649" transform="matrix(0.9694414,0.245323,-0.3384571,0.94098182,0,0)" />
  </g>
  <g transform="matrix(-1,0,0,1,256,0)"><g ns2:groupmode="layer" ns2:label="eyes">
    <ellipse style="fill:none;stroke:#000000;stroke-width:10.0;stroke-linecap:round;stroke-linejoin:round;stroke-miterlimit:4;stroke-dasharray:none;stop-color:#000000" cx="131.91898" cy="89.018501" rx="8.5885868" ry="17.80649" transform="matrix(0.9694414,0.245323,-0.3384571,0.94098182,0,0)" />
  </g>
  </g></g></g><g id="eye-highlights"><ellipse style="fill:#ffffff;stroke-width:1.11834;stroke-linecap:round;stroke-linejoin:round;stop-color:#000000" cx="-8.5884247" cy="143.36406" rx="2.7507515" ry="4.067214" transform="rotate(-48.517308)" />
    <ellipse style="fill:#ffffff;stroke-width:1.13293;stroke-linecap:round;stroke-linejoin:round;stop-color:#000000" cx="54.758118" cy="142.80299" rx="1.5731258" ry="2.8913913" transform="matrix(0.91838091,-0.3956975,0.40317277,0.91512388,0,0)" />
    <ellipse style="fill:#ffffff;stroke-width:1.11834;stroke-linecap:round;stroke-linejoin:round;stop-color:#000000" cx="28.332096" cy="188.13972" rx="2.7507515" ry="4.067214" transform="rotate(-48.517308)" />
    <ellipse style="fill:#ffffff;stroke-width:1.13293;stroke-linecap:round;stroke-linejoin:round;stop-color:#000000" cx="107.03065" cy="167.59122" rx="1.5731258" ry="2.8913913" transform="matrix(0.91838091,-0.3956975,0.40317277,0.91512388,0,0)" />
  </g></svg>
